<svg xmlns="http://www.w3.org/2000/svg" data-name="Layer 1" viewBox="0 0 512 640" x="0px" y="0px"><title>Business estimation</title><path d="M68.55,161.45H327.22a6,6,0,0,0,6-6V56.38a6,6,0,0,0-6-6H68.55a6,6,0,0,0-6,6v99.07A6,6,0,0,0,68.55,161.45Zm2-103.07H325.22v95.07H70.55Z"/><path d="M361.85,271.41V36.86A24.83,24.83,0,0,0,337.12,12H59.9A24.82,24.82,0,0,0,35.17,36.86V474.93A24.82,24.82,0,0,0,59.9,499.78H337.12a4.2,4.2,0,0,0,.62-.06c2.68.18,5.38.28,8.11.28,64.69,0,117.32-51.51,117.32-114.83C463.17,327.16,419,279.07,361.85,271.41ZM59.9,491.78a16.81,16.81,0,0,1-16.73-16.85V36.86A16.81,16.81,0,0,1,59.9,20H337.12a16.82,16.82,0,0,1,16.73,16.86V270.61c-2.65-.18-5.31-.28-8-.28-3.92,0-7.78.2-11.6.56V194.38a6.08,6.08,0,0,0-6.07-6.09H64.69a6.08,6.08,0,0,0-6.07,6.09v270.2a6.08,6.08,0,0,0,6.07,6.08H247.52a4,4,0,0,0,1.65.37,3.9,3.9,0,0,0,1.64-.37h16.8a117.81,117.81,0,0,0,34.66,21.12Zm185.27-29.12H151.45V403.55H230a112.51,112.51,0,0,0,15.14,40.52Zm8-7.16q2.94,3.71,6.18,7.16h-6.18ZM66.62,462.66V403.55h76.83v59.11Zm168.8-266.37V257h-84V196.29Zm90.83,0V257H243.42V196.29ZM235.42,346.38a112.08,112.08,0,0,0-6.9,38.79c0,3.5.17,7,.49,10.38H151.45V333.21h84ZM66.62,265h76.83v60.26H66.62Zm0,68.26h76.83v62.34H66.62Zm84.83-8V265h84v60.26Zm-8-68.26H66.62V196.29h76.83Zm102.37,68.26h-2.4V265h82.83v7A117.72,117.72,0,0,0,245.82,325.21Zm-.4,102.16a104.21,104.21,0,0,1-8.9-42.2c0-58.91,49-106.84,109.33-106.84s109.32,47.93,109.32,106.84S406.13,492,345.85,492a109.94,109.94,0,0,1-92.68-50.23Z"/><path d="M351.58,327.07V316.76a4,4,0,0,0-8,0v10.31a27.27,27.27,0,0,0-16.75,7.43c-8.4,8.19-8.9,19.76-8.85,23.1.19,12.84,10,23.67,23.86,26.36l1.34.26,3.32.65c.62.12,1.84.48,2.56.7a7.79,7.79,0,0,1,.85.31l.17.06,2.06.79a7,7,0,0,1,.79.35c1.05.53,1.33.69,2.06,1.12l1.11.64.27.17h0a1,1,0,0,0,.19.12c2.32,1.4,13.95,9,14.42,20.3.28,6.65-1.54,12-5.43,15.88C359.91,431,351,432.67,345,432.42c-7.43-.31-21.34-6.64-22.63-18.15a4,4,0,1,0-7.95.9c1.84,16.41,19.31,24.26,29.17,25.17v9.07a4,4,0,0,0,8,0v-9.35c6.71-.92,14.16-3.61,19.64-9.09s8.14-12.9,7.77-21.88c-.63-15-14.11-24.28-18.33-26.83h0l-.51-.32c-.49-.27-.84-.48-1.13-.65-.78-.45-1.21-.7-2.46-1.33a14.49,14.49,0,0,0-1.56-.69l-2-.76a15.43,15.43,0,0,0-1.65-.6c-1.23-.36-2.41-.71-3.35-.89l-3.28-.64-1.36-.26c-11.85-2.3-17.27-11-17.38-18.62-.07-5.24,1.58-12.52,6.44-17.26,3.92-3.82,9.48-5.61,16.54-5.33,19.4.79,23.74,17.2,23.93,17.93a4,4,0,1,0,7.77-1.88A32.83,32.83,0,0,0,351.58,327.07Z"/><text x="0" y="527" fill="#000000" font-size="5px" font-weight="bold" font-family="'Helvetica Neue', Helvetica, Arial-Unicode, Arial, Sans-serif">Created by Iconsparks</text><text x="0" y="532" fill="#fff" font-size="5px" font-weight="bold" font-family="'Helvetica Neue', Helvetica, Arial-Unicode, Arial, Sans-serif">from the Noun Project</text></svg>